<?xml version="1.0" encoding="UTF-8" standalone="no"?><svg xmlns="http://www.w3.org/2000/svg" xmlns:xlink="http://www.w3.org/1999/xlink" contentScriptType="application/ecmascript" contentStyleType="text/css" height="257px" preserveAspectRatio="none" style="width:174px;height:257px;" version="1.1" viewBox="0 0 174 257" width="174px" zoomAndPan="magnify"><defs><filter height="300%" id="f149ik5z13h6gz" width="300%" x="-1" y="-1"><feGaussianBlur result="blurOut" stdDeviation="2.0"/><feColorMatrix in="blurOut" result="blurOut2" type="matrix" values="0 0 0 0 0 0 0 0 0 0 0 0 0 0 0 0 0 0 .4 0"/><feOffset dx="4.0" dy="4.0" in="blurOut2" result="blurOut3"/><feBlend in="SourceGraphic" in2="blurOut3" mode="normal"/></filter></defs><g><polygon fill="#FFFFFF" filter="url(#f149ik5z13h6gz)" points="14,16,142,16,149,38.0986,152,38.0986,152,245,14,245,14,16" style="stroke: #000000; stroke-width: 1.5;"/><line style="stroke: #000000; stroke-width: 1.5;" x1="14" x2="149" y1="38.0986" y2="38.0986"/><text fill="#000000" font-family="sans-serif" font-size="14" font-weight="bold" lengthAdjust="spacingAndGlyphs" textLength="122" x="18" y="31.1318">com.youkeda.util</text><rect fill="#FEFECE" filter="url(#f149ik5z13h6gz)" height="73.2979" id="OuterUtil" style="stroke: #A80036; stroke-width: 1.5;" width="118" x="24" y="43"/><ellipse cx="56.1" cy="59" fill="#ADD1B2" rx="11" ry="11" style="stroke: #A80036; stroke-width: 1.0;"/><path d="M56.1313,53.9063 Q57.1938,53.9063 57.725,54.3125 Q57.7875,54.3594 57.8656,54.4219 Q58.0219,54.5469 58.0531,54.5 Q58.0688,54.4688 58.0688,54.4219 Q58.1156,54.0469 58.2719,53.7188 L59.3188,54 Q58.9906,54.875 58.9906,55.1406 Q58.9906,55.5156 59.3188,56.3125 L58.0844,56.5938 Q57.725,55.9063 56.9125,55.5313 Q56.5219,55.3594 56.1313,55.3594 Q55.0531,55.3594 54.3031,56.3906 Q53.6469,57.3281 53.6469,58.7188 Q53.6469,60.2813 54.5688,61.3438 Q55.2406,62.125 56.1313,62.125 Q57.0063,62.125 57.8188,61.2031 Q57.8813,61.1563 57.9281,61.0938 L59.0375,62.1563 Q58.2719,63.1094 56.9125,63.4375 Q56.5063,63.5313 56.1313,63.5313 Q54.35,63.5313 53.1625,62.0156 Q52.0844,60.625 52.0844,58.7188 Q52.0844,56.6094 53.3656,55.1875 Q54.5219,53.9063 56.1313,53.9063 Z "/><text fill="#000000" font-family="sans-serif" font-size="12" lengthAdjust="spacingAndGlyphs" textLength="48" x="73.9" y="63.3564">OuterUtil</text><line style="stroke: #A80036; stroke-width: 1.5;" x1="25" x2="141" y1="75" y2="75"/><rect fill="none" height="6" style="stroke: #C82930; stroke-width: 1.0;" width="6" x="32" y="83"/><text fill="#000000" font-family="sans-serif" font-size="11" lengthAdjust="spacingAndGlyphs" textLength="64" x="44" y="89.3179">InnerTool tool</text><line style="stroke: #A80036; stroke-width: 1.0; stroke-dasharray: 1.0,2.0;" x1="25" x2="141" y1="95.6489" y2="95.6489"/><text fill="#000000" font-family="sans-serif" font-size="11" lengthAdjust="spacingAndGlyphs" textLength="106" x="30" y="109.9668">int add(a:int,b:int,c:int)</text><rect fill="#FEFECE" filter="url(#f149ik5z13h6gz)" height="60.6489" id="InnerTool" style="stroke: #A80036; stroke-width: 1.5;" width="95" x="35.5" y="176"/><ellipse cx="55.45" cy="192" fill="#ADD1B2" rx="11" ry="11" style="stroke: #A80036; stroke-width: 1.0;"/><path d="M55.4813,186.9063 Q56.5438,186.9063 57.075,187.3125 Q57.1375,187.3594 57.2156,187.4219 Q57.3719,187.5469 57.4031,187.5 Q57.4188,187.4688 57.4188,187.4219 Q57.4656,187.0469 57.6219,186.7188 L58.6688,187 Q58.3406,187.875 58.3406,188.1406 Q58.3406,188.5156 58.6688,189.3125 L57.4344,189.5938 Q57.075,188.9063 56.2625,188.5313 Q55.8719,188.3594 55.4813,188.3594 Q54.4031,188.3594 53.6531,189.3906 Q52.9969,190.3281 52.9969,191.7188 Q52.9969,193.2813 53.9188,194.3438 Q54.5906,195.125 55.4813,195.125 Q56.3563,195.125 57.1688,194.2031 Q57.2313,194.1563 57.2781,194.0938 L58.3875,195.1563 Q57.6219,196.1094 56.2625,196.4375 Q55.8563,196.5313 55.4813,196.5313 Q53.7,196.5313 52.5125,195.0156 Q51.4344,193.625 51.4344,191.7188 Q51.4344,189.6094 52.7156,188.1875 Q53.8719,186.9063 55.4813,186.9063 Z "/><text fill="#000000" font-family="sans-serif" font-size="12" lengthAdjust="spacingAndGlyphs" textLength="52" x="70.55" y="196.3564">InnerTool</text><line style="stroke: #A80036; stroke-width: 1.5;" x1="36.5" x2="129.5" y1="208" y2="208"/><line style="stroke: #A80036; stroke-width: 1.5;" x1="36.5" x2="129.5" y1="216" y2="216"/><text fill="#000000" font-family="sans-serif" font-size="11" lengthAdjust="spacingAndGlyphs" textLength="83" x="41.5" y="230.3179">int add(a:int,b:int)</text><path d="M83,131.4751 C83,146.5554 83,162.5331 83,175.8505 " fill="none" id="OuterUtil&lt;-InnerTool" style="stroke: #A80036; stroke-width: 1.0;"/><ellipse cx="83.0001" cy="124.2337" fill="#FFFFFF" rx="8" ry="8" style="stroke: #A80036; stroke-width: 1.0;"/><line style="stroke: #A80036; stroke-width: 1.0;" x1="83.0002" x2="83" y1="132.2337" y2="116.2337"/><line style="stroke: #A80036; stroke-width: 1.0;" x1="75.0001" x2="91.0001" y1="124.2338" y2="124.2336"/></g></svg>