<?xml version="1.0" encoding="UTF-8" standalone="no"?><svg xmlns="http://www.w3.org/2000/svg" xmlns:xlink="http://www.w3.org/1999/xlink" contentScriptType="application/ecmascript" contentStyleType="text/css" height="200px" preserveAspectRatio="none" style="width:146px;height:200px;" version="1.1" viewBox="0 0 146 200" width="146px" zoomAndPan="magnify"><defs><filter height="300%" id="f15o6talhxefx1" width="300%" x="-1" y="-1"><feGaussianBlur result="blurOut" stdDeviation="2.0"/><feColorMatrix in="blurOut" result="blurOut2" type="matrix" values="0 0 0 0 0 0 0 0 0 0 0 0 0 0 0 0 0 0 .4 0"/><feOffset dx="4.0" dy="4.0" in="blurOut2" result="blurOut3"/><feBlend in="SourceGraphic" in2="blurOut3" mode="normal"/></filter></defs><g><rect fill="#FEFECE" filter="url(#f15o6talhxefx1)" height="60.6489" id="Weapon" style="stroke: #A80036; stroke-width: 1.5;" width="129" x="6" y="8"/><ellipse cx="43.95" cy="24" fill="#A9DCDF" rx="11" ry="11" style="stroke: #A80036; stroke-width: 1.0;"/><path d="M42.7781,22.7344 L44.3719,22.7344 L43.5281,20.4531 L42.7781,22.7344 Z M44.5906,26.3281 L45.4813,26.3281 L44.6375,23.7813 L42.5125,23.7813 L41.6688,26.3281 L42.5594,26.3281 L42.5594,27.75 L38.95,27.75 L38.95,26.3281 L40.1063,26.3281 L42.2469,19.625 L40.5281,19.625 L40.5281,18.2031 L44.4813,18.2031 L47.0281,26.3281 L48.1531,26.3281 L48.1531,27.75 L44.5906,27.75 L44.5906,26.3281 Z "/><text fill="#000000" font-family="sans-serif" font-size="12" font-style="italic" lengthAdjust="spacingAndGlyphs" textLength="46" x="63.05" y="28.3564">Weapon</text><line style="stroke: #A80036; stroke-width: 1.5;" x1="7" x2="134" y1="40" y2="40"/><line style="stroke: #A80036; stroke-width: 1.0; stroke-dasharray: 1.0,2.0;" x1="7" x2="134" y1="48" y2="48"/><ellipse cx="17" cy="59" fill="#84BE84" rx="3" ry="3" style="stroke: #038048; stroke-width: 1.0;"/><text fill="#000000" font-family="sans-serif" font-size="11" lengthAdjust="spacingAndGlyphs" textLength="103" x="26" y="62.3179">abstract void attack()</text><rect fill="#FEFECE" filter="url(#f15o6talhxefx1)" height="60.6489" id="GoldenBar" style="stroke: #A80036; stroke-width: 1.5;" width="91" x="25" y="129"/><ellipse cx="40" cy="145" fill="#ADD1B2" rx="11" ry="11" style="stroke: #A80036; stroke-width: 1.0;"/><path d="M40.0313,139.9063 Q41.0938,139.9063 41.625,140.3125 Q41.6875,140.3594 41.7656,140.4219 Q41.9219,140.5469 41.9531,140.5 Q41.9688,140.4688 41.9688,140.4219 Q42.0156,140.0469 42.1719,139.7188 L43.2188,140 Q42.8906,140.875 42.8906,141.1406 Q42.8906,141.5156 43.2188,142.3125 L41.9844,142.5938 Q41.625,141.9063 40.8125,141.5313 Q40.4219,141.3594 40.0313,141.3594 Q38.9531,141.3594 38.2031,142.3906 Q37.5469,143.3281 37.5469,144.7188 Q37.5469,146.2813 38.4688,147.3438 Q39.1406,148.125 40.0313,148.125 Q40.9063,148.125 41.7188,147.2031 Q41.7813,147.1563 41.8281,147.0938 L42.9375,148.1563 Q42.1719,149.1094 40.8125,149.4375 Q40.4063,149.5313 40.0313,149.5313 Q38.25,149.5313 37.0625,148.0156 Q35.9844,146.625 35.9844,144.7188 Q35.9844,142.6094 37.2656,141.1875 Q38.4219,139.9063 40.0313,139.9063 Z "/><text fill="#000000" font-family="sans-serif" font-size="12" lengthAdjust="spacingAndGlyphs" textLength="59" x="54" y="149.3564">GoldenBar</text><line style="stroke: #A80036; stroke-width: 1.5;" x1="26" x2="115" y1="161" y2="161"/><line style="stroke: #A80036; stroke-width: 1.0; stroke-dasharray: 1.0,2.0;" x1="26" x2="115" y1="169" y2="169"/><ellipse cx="36" cy="180" fill="#84BE84" rx="3" ry="3" style="stroke: #038048; stroke-width: 1.0;"/><text fill="#000000" font-family="sans-serif" font-size="11" lengthAdjust="spacingAndGlyphs" textLength="60" x="45" y="183.3179">void attack()</text><path d="M70.5,89.2927 C70.5,102.7857 70.5,116.9401 70.5,128.9764 " fill="none" id="Weapon&lt;-GoldenBar" style="stroke: #A80036; stroke-width: 1.0;"/><polygon fill="none" points="63.5001,89.0334,70.5,69.0334,77.5001,89.0334,63.5001,89.0334" style="stroke: #A80036; stroke-width: 1.0;"/></g></svg>