<?xml version="1.0" encoding="UTF-8" standalone="no"?><svg xmlns="http://www.w3.org/2000/svg" xmlns:xlink="http://www.w3.org/1999/xlink" contentScriptType="application/ecmascript" contentStyleType="text/css" height="331px" preserveAspectRatio="none" style="width:440px;height:331px;" version="1.1" viewBox="0 0 440 331" width="440px" zoomAndPan="magnify"><defs><filter height="300%" id="f1l8odq6x7p7qv" width="300%" x="-1" y="-1"><feGaussianBlur result="blurOut" stdDeviation="2.0"/><feColorMatrix in="blurOut" result="blurOut2" type="matrix" values="0 0 0 0 0 0 0 0 0 0 0 0 0 0 0 0 0 0 .4 0"/><feOffset dx="4.0" dy="4.0" in="blurOut2" result="blurOut3"/><feBlend in="SourceGraphic" in2="blurOut3" mode="normal"/></filter></defs><g><polygon fill="#FFFFFF" filter="url(#f1l8odq6x7p7qv)" points="137,149,286,149,293,171.0986,296,171.0986,296,319,137,319,137,149" style="stroke: #000000; stroke-width: 1.5;"/><line style="stroke: #000000; stroke-width: 1.5;" x1="137" x2="293" y1="171.0986" y2="171.0986"/><text fill="#000000" font-family="sans-serif" font-size="14" font-weight="bold" lengthAdjust="spacingAndGlyphs" textLength="143" x="141" y="164.1318">com.youkeda.model</text><polygon fill="#FFFFFF" filter="url(#f1l8odq6x7p7qv)" points="14,16,172,16,179,38.0986,418,38.0986,418,124,14,124,14,16" style="stroke: #000000; stroke-width: 1.5;"/><line style="stroke: #000000; stroke-width: 1.5;" x1="14" x2="179" y1="38.0986" y2="38.0986"/><text fill="#000000" font-family="sans-serif" font-size="14" font-weight="bold" lengthAdjust="spacingAndGlyphs" textLength="152" x="18" y="31.1318">com.youkeda.service</text><rect fill="#FEFECE" filter="url(#f1l8odq6x7p7qv)" height="134.8669" id="User" style="stroke: #A80036; stroke-width: 1.5;" width="107" x="162.5" y="176"/><ellipse cx="199.1" cy="192" fill="#ADD1B2" rx="11" ry="11" style="stroke: #A80036; stroke-width: 1.0;"/><path d="M199.1313,186.9063 Q200.1938,186.9063 200.725,187.3125 Q200.7875,187.3594 200.8656,187.4219 Q201.0219,187.5469 201.0531,187.5 Q201.0688,187.4688 201.0688,187.4219 Q201.1156,187.0469 201.2719,186.7188 L202.3188,187 Q201.9906,187.875 201.9906,188.1406 Q201.9906,188.5156 202.3188,189.3125 L201.0844,189.5938 Q200.725,188.9063 199.9125,188.5313 Q199.5219,188.3594 199.1313,188.3594 Q198.0531,188.3594 197.3031,189.3906 Q196.6469,190.3281 196.6469,191.7188 Q196.6469,193.2813 197.5688,194.3438 Q198.2406,195.125 199.1313,195.125 Q200.0063,195.125 200.8188,194.2031 Q200.8813,194.1563 200.9281,194.0938 L202.0375,195.1563 Q201.2719,196.1094 199.9125,196.4375 Q199.5063,196.5313 199.1313,196.5313 Q197.35,196.5313 196.1625,195.0156 Q195.0844,193.625 195.0844,191.7188 Q195.0844,189.6094 196.3656,188.1875 Q197.5219,186.9063 199.1313,186.9063 Z "/><text fill="#000000" font-family="sans-serif" font-size="12" lengthAdjust="spacingAndGlyphs" textLength="27" x="217.9" y="196.3564">User</text><line style="stroke: #A80036; stroke-width: 1.5;" x1="163.5" x2="268.5" y1="208" y2="208"/><text fill="#000000" font-family="sans-serif" font-size="11" lengthAdjust="spacingAndGlyphs" textLength="31" x="182.5" y="222.3179">// 昵称</text><rect fill="none" height="6" style="stroke: #C82930; stroke-width: 1.0;" width="6" x="170.5" y="228.6489"/><text fill="#000000" font-family="sans-serif" font-size="11" lengthAdjust="spacingAndGlyphs" textLength="77" x="182.5" y="234.9668">String nickName</text><text fill="#000000" font-family="sans-serif" font-size="11" lengthAdjust="spacingAndGlyphs" textLength="42" x="182.5" y="247.6157">// 用户名</text><rect fill="none" height="6" style="stroke: #C82930; stroke-width: 1.0;" width="6" x="170.5" y="253.9468"/><text fill="#000000" font-family="sans-serif" font-size="11" lengthAdjust="spacingAndGlyphs" textLength="80" x="182.5" y="260.2646">String userName</text><text fill="#000000" font-family="sans-serif" font-size="11" lengthAdjust="spacingAndGlyphs" textLength="31" x="182.5" y="272.9136">// 密码</text><rect fill="none" height="6" style="stroke: #C82930; stroke-width: 1.0;" width="6" x="170.5" y="279.2446"/><text fill="#000000" font-family="sans-serif" font-size="11" lengthAdjust="spacingAndGlyphs" textLength="81" x="182.5" y="285.5625">String password</text><line style="stroke: #A80036; stroke-width: 1.0; stroke-dasharray: 1.0,2.0;" x1="163.5" x2="185" y1="298.218" y2="298.218"/><text fill="#000000" font-family="sans-serif" font-size="11" lengthAdjust="spacingAndGlyphs" textLength="62" x="185" y="301.7114">Getter/Setter</text><line style="stroke: #A80036; stroke-width: 1.0; stroke-dasharray: 1.0,2.0;" x1="247" x2="268.5" y1="298.218" y2="298.218"/><rect fill="#FEFECE" filter="url(#f1l8odq6x7p7qv)" height="73.2979" id="UserService" style="stroke: #A80036; stroke-width: 1.5;" width="387" x="22.5" y="43"/><ellipse cx="178.25" cy="59" fill="#B4A7E5" rx="11" ry="11" style="stroke: #A80036; stroke-width: 1.0;"/><path d="M177.1406,55.375 L174.2813,55.375 L174.2813,53.9531 L181.4375,53.9531 L181.4375,55.375 L178.6563,55.375 L178.6563,62.0781 L181.4219,62.0781 L181.4219,63.5 L174.2656,63.5 L174.2656,62.0781 L177.1406,62.0781 L177.1406,55.375 Z "/><text fill="#000000" font-family="sans-serif" font-size="12" font-style="italic" lengthAdjust="spacingAndGlyphs" textLength="67" x="198.75" y="63.3564">UserService</text><line style="stroke: #A80036; stroke-width: 1.5;" x1="23.5" x2="408.5" y1="75" y2="75"/><line style="stroke: #A80036; stroke-width: 1.0; stroke-dasharray: 1.0,2.0;" x1="23.5" x2="408.5" y1="83" y2="83"/><text fill="#000000" font-family="sans-serif" font-size="11" lengthAdjust="spacingAndGlyphs" textLength="31" x="42.5" y="97.3179">// 登录</text><ellipse cx="33.5" cy="106.6489" fill="#84BE84" rx="3" ry="3" style="stroke: #038048; stroke-width: 1.0;"/><text fill="#000000" font-family="sans-serif" font-size="11" lengthAdjust="spacingAndGlyphs" textLength="361" x="42.5" y="109.9668">User login(userName:String,password:String)  throws NullPointerException</text><path d="M216,116.3048 C216,132.3609 216,151.7789 216,170.5557 " fill="none" id="UserService-&gt;User" style="stroke: #A80036; stroke-width: 1.0;"/><polygon fill="#A80036" points="216,175.8314,220,166.8314,216,170.8314,212,166.8314,216,175.8314" style="stroke: #A80036; stroke-width: 1.0;"/></g></svg>