<?xml version="1.0" encoding="UTF-8" standalone="no"?><svg xmlns="http://www.w3.org/2000/svg" xmlns:xlink="http://www.w3.org/1999/xlink" contentScriptType="application/ecmascript" contentStyleType="text/css" height="486px" preserveAspectRatio="none" style="width:565px;height:486px;" version="1.1" viewBox="0 0 565 486" width="565px" zoomAndPan="magnify"><defs><filter height="300%" id="f92wie9qnbdoq" width="300%" x="-1" y="-1"><feGaussianBlur result="blurOut" stdDeviation="2.0"/><feColorMatrix in="blurOut" result="blurOut2" type="matrix" values="0 0 0 0 0 0 0 0 0 0 0 0 0 0 0 0 0 0 .4 0"/><feOffset dx="4.0" dy="4.0" in="blurOut2" result="blurOut3"/><feBlend in="SourceGraphic" in2="blurOut3" mode="normal"/></filter></defs><g><polygon fill="#FFFFFF" filter="url(#f92wie9qnbdoq)" points="273,304,422,304,429,326.0986,432,326.0986,432,474,273,474,273,304" style="stroke: #000000; stroke-width: 1.5;"/><line style="stroke: #000000; stroke-width: 1.5;" x1="273" x2="429" y1="326.0986" y2="326.0986"/><text fill="#000000" font-family="sans-serif" font-size="14" font-weight="bold" lengthAdjust="spacingAndGlyphs" textLength="143" x="277" y="319.1318">com.youkeda.model</text><polygon fill="#FFFFFF" filter="url(#f92wie9qnbdoq)" points="14,172.5,189,172.5,196,194.5986,199,194.5986,199,255.5,14,255.5,14,172.5" style="stroke: #000000; stroke-width: 1.5;"/><line style="stroke: #000000; stroke-width: 1.5;" x1="14" x2="196" y1="194.5986" y2="194.5986"/><text fill="#000000" font-family="sans-serif" font-size="14" font-weight="bold" lengthAdjust="spacingAndGlyphs" textLength="169" x="18" y="187.6318">com.youkeda.exception</text><polygon fill="#FFFFFF" filter="url(#f92wie9qnbdoq)" points="143,16,301,16,308,38.0986,543,38.0986,543,124,143,124,143,16" style="stroke: #000000; stroke-width: 1.5;"/><line style="stroke: #000000; stroke-width: 1.5;" x1="143" x2="308" y1="38.0986" y2="38.0986"/><text fill="#000000" font-family="sans-serif" font-size="14" font-weight="bold" lengthAdjust="spacingAndGlyphs" textLength="152" x="147" y="31.1318">com.youkeda.service</text><polygon fill="#FFFFFF" filter="url(#f92wie9qnbdoq)" points="322,149,514,149,521,171.0986,524,171.0986,524,279,322,279,322,149" style="stroke: #000000; stroke-width: 1.5;"/><line style="stroke: #000000; stroke-width: 1.5;" x1="322" x2="521" y1="171.0986" y2="171.0986"/><text fill="#000000" font-family="sans-serif" font-size="14" font-weight="bold" lengthAdjust="spacingAndGlyphs" textLength="186" x="326" y="164.1318">com.youkeda.service.impl</text><rect fill="#FEFECE" filter="url(#f92wie9qnbdoq)" height="134.8669" id="User" style="stroke: #A80036; stroke-width: 1.5;" width="107" x="298.5" y="331"/><ellipse cx="335.1" cy="347" fill="#ADD1B2" rx="11" ry="11" style="stroke: #A80036; stroke-width: 1.0;"/><path d="M335.1313,341.9063 Q336.1938,341.9063 336.725,342.3125 Q336.7875,342.3594 336.8656,342.4219 Q337.0219,342.5469 337.0531,342.5 Q337.0688,342.4688 337.0688,342.4219 Q337.1156,342.0469 337.2719,341.7188 L338.3188,342 Q337.9906,342.875 337.9906,343.1406 Q337.9906,343.5156 338.3188,344.3125 L337.0844,344.5938 Q336.725,343.9063 335.9125,343.5313 Q335.5219,343.3594 335.1313,343.3594 Q334.0531,343.3594 333.3031,344.3906 Q332.6469,345.3281 332.6469,346.7188 Q332.6469,348.2813 333.5688,349.3438 Q334.2406,350.125 335.1313,350.125 Q336.0063,350.125 336.8188,349.2031 Q336.8813,349.1563 336.9281,349.0938 L338.0375,350.1563 Q337.2719,351.1094 335.9125,351.4375 Q335.5063,351.5313 335.1313,351.5313 Q333.35,351.5313 332.1625,350.0156 Q331.0844,348.625 331.0844,346.7188 Q331.0844,344.6094 332.3656,343.1875 Q333.5219,341.9063 335.1313,341.9063 Z "/><text fill="#000000" font-family="sans-serif" font-size="12" lengthAdjust="spacingAndGlyphs" textLength="27" x="353.9" y="351.3564">User</text><line style="stroke: #A80036; stroke-width: 1.5;" x1="299.5" x2="404.5" y1="363" y2="363"/><text fill="#000000" font-family="sans-serif" font-size="11" lengthAdjust="spacingAndGlyphs" textLength="31" x="318.5" y="377.3179">// 昵称</text><rect fill="none" height="6" style="stroke: #C82930; stroke-width: 1.0;" width="6" x="306.5" y="383.6489"/><text fill="#000000" font-family="sans-serif" font-size="11" lengthAdjust="spacingAndGlyphs" textLength="77" x="318.5" y="389.9668">String nickName</text><text fill="#000000" font-family="sans-serif" font-size="11" lengthAdjust="spacingAndGlyphs" textLength="42" x="318.5" y="402.6157">// 用户名</text><rect fill="none" height="6" style="stroke: #C82930; stroke-width: 1.0;" width="6" x="306.5" y="408.9468"/><text fill="#000000" font-family="sans-serif" font-size="11" lengthAdjust="spacingAndGlyphs" textLength="80" x="318.5" y="415.2646">String userName</text><text fill="#000000" font-family="sans-serif" font-size="11" lengthAdjust="spacingAndGlyphs" textLength="31" x="318.5" y="427.9136">// 密码</text><rect fill="none" height="6" style="stroke: #C82930; stroke-width: 1.0;" width="6" x="306.5" y="434.2446"/><text fill="#000000" font-family="sans-serif" font-size="11" lengthAdjust="spacingAndGlyphs" textLength="81" x="318.5" y="440.5625">String password</text><line style="stroke: #A80036; stroke-width: 1.0; stroke-dasharray: 1.0,2.0;" x1="299.5" x2="321" y1="453.218" y2="453.218"/><text fill="#000000" font-family="sans-serif" font-size="11" lengthAdjust="spacingAndGlyphs" textLength="62" x="321" y="456.7114">Getter/Setter</text><line style="stroke: #A80036; stroke-width: 1.0; stroke-dasharray: 1.0,2.0;" x1="383" x2="404.5" y1="453.218" y2="453.218"/><rect fill="#FEFECE" filter="url(#f92wie9qnbdoq)" height="48" id="ParamNullException" style="stroke: #A80036; stroke-width: 1.5;" width="144" x="34" y="199.5"/><ellipse cx="49" cy="215.5" fill="#ADD1B2" rx="11" ry="11" style="stroke: #A80036; stroke-width: 1.0;"/><path d="M49.0313,210.4063 Q50.0938,210.4063 50.625,210.8125 Q50.6875,210.8594 50.7656,210.9219 Q50.9219,211.0469 50.9531,211 Q50.9688,210.9688 50.9688,210.9219 Q51.0156,210.5469 51.1719,210.2188 L52.2188,210.5 Q51.8906,211.375 51.8906,211.6406 Q51.8906,212.0156 52.2188,212.8125 L50.9844,213.0938 Q50.625,212.4063 49.8125,212.0313 Q49.4219,211.8594 49.0313,211.8594 Q47.9531,211.8594 47.2031,212.8906 Q46.5469,213.8281 46.5469,215.2188 Q46.5469,216.7813 47.4688,217.8438 Q48.1406,218.625 49.0313,218.625 Q49.9063,218.625 50.7188,217.7031 Q50.7813,217.6563 50.8281,217.5938 L51.9375,218.6563 Q51.1719,219.6094 49.8125,219.9375 Q49.4063,220.0313 49.0313,220.0313 Q47.25,220.0313 46.0625,218.5156 Q44.9844,217.125 44.9844,215.2188 Q44.9844,213.1094 46.2656,211.6875 Q47.4219,210.4063 49.0313,210.4063 Z "/><text fill="#000000" font-family="sans-serif" font-size="12" lengthAdjust="spacingAndGlyphs" textLength="112" x="63" y="219.8564">ParamNullException</text><line style="stroke: #A80036; stroke-width: 1.5;" x1="35" x2="177" y1="231.5" y2="231.5"/><line style="stroke: #A80036; stroke-width: 1.5;" x1="35" x2="177" y1="239.5" y2="239.5"/><rect fill="#FEFECE" filter="url(#f92wie9qnbdoq)" height="73.2979" id="UserService" style="stroke: #A80036; stroke-width: 1.5;" width="384" x="151" y="43"/><ellipse cx="305.25" cy="59" fill="#B4A7E5" rx="11" ry="11" style="stroke: #A80036; stroke-width: 1.0;"/><path d="M304.1406,55.375 L301.2813,55.375 L301.2813,53.9531 L308.4375,53.9531 L308.4375,55.375 L305.6563,55.375 L305.6563,62.0781 L308.4219,62.0781 L308.4219,63.5 L301.2656,63.5 L301.2656,62.0781 L304.1406,62.0781 L304.1406,55.375 Z "/><text fill="#000000" font-family="sans-serif" font-size="12" font-style="italic" lengthAdjust="spacingAndGlyphs" textLength="67" x="325.75" y="63.3564">UserService</text><line style="stroke: #A80036; stroke-width: 1.5;" x1="152" x2="534" y1="75" y2="75"/><line style="stroke: #A80036; stroke-width: 1.0; stroke-dasharray: 1.0,2.0;" x1="152" x2="534" y1="83" y2="83"/><text fill="#000000" font-family="sans-serif" font-size="11" lengthAdjust="spacingAndGlyphs" textLength="31" x="171" y="97.3179">// 登录</text><ellipse cx="162" cy="106.6489" fill="#84BE84" rx="3" ry="3" style="stroke: #038048; stroke-width: 1.0;"/><text fill="#000000" font-family="sans-serif" font-size="11" lengthAdjust="spacingAndGlyphs" textLength="358" x="171" y="109.9668">User login(userName:String,password:String)  throws ParamNullException</text><rect fill="#FEFECE" filter="url(#f92wie9qnbdoq)" height="94.5957" id="UserServiceImpl" style="stroke: #A80036; stroke-width: 1.5;" width="156" x="340" y="176"/><ellipse cx="369.85" cy="192" fill="#ADD1B2" rx="11" ry="11" style="stroke: #A80036; stroke-width: 1.0;"/><path d="M369.8813,186.9063 Q370.9438,186.9063 371.475,187.3125 Q371.5375,187.3594 371.6156,187.4219 Q371.7719,187.5469 371.8031,187.5 Q371.8188,187.4688 371.8188,187.4219 Q371.8656,187.0469 372.0219,186.7188 L373.0688,187 Q372.7406,187.875 372.7406,188.1406 Q372.7406,188.5156 373.0688,189.3125 L371.8344,189.5938 Q371.475,188.9063 370.6625,188.5313 Q370.2719,188.3594 369.8813,188.3594 Q368.8031,188.3594 368.0531,189.3906 Q367.3969,190.3281 367.3969,191.7188 Q367.3969,193.2813 368.3188,194.3438 Q368.9906,195.125 369.8813,195.125 Q370.7563,195.125 371.5688,194.2031 Q371.6313,194.1563 371.6781,194.0938 L372.7875,195.1563 Q372.0219,196.1094 370.6625,196.4375 Q370.2563,196.5313 369.8813,196.5313 Q368.1,196.5313 366.9125,195.0156 Q365.8344,193.625 365.8344,191.7188 Q365.8344,189.6094 367.1156,188.1875 Q368.2719,186.9063 369.8813,186.9063 Z "/><text fill="#000000" font-family="sans-serif" font-size="12" lengthAdjust="spacingAndGlyphs" textLength="91" x="387.15" y="196.3564">UserServiceImpl</text><line style="stroke: #A80036; stroke-width: 1.5;" x1="341" x2="495" y1="208" y2="208"/><text fill="#000000" font-family="sans-serif" font-size="11" lengthAdjust="spacingAndGlyphs" textLength="130" x="360" y="222.3179">// 角色常量，存储所有角色</text><rect fill="none" height="6" style="stroke: #C82930; stroke-width: 1.0;" width="6" x="348" y="228.6489"/><text fill="#000000" font-family="sans-serif" font-size="11" lengthAdjust="spacingAndGlyphs" text-decoration="underline" textLength="92" x="360" y="234.9668">List&lt;User&gt; USERS;</text><text fill="#000000" font-family="sans-serif" font-size="11" lengthAdjust="spacingAndGlyphs" textLength="0" x="349" y="264.2646"/><line style="stroke: #A80036; stroke-width: 1.0; stroke-dasharray: 1.0,2.0;" x1="341" x2="379.5" y1="247.6223" y2="247.6223"/><text fill="#000000" font-family="sans-serif" font-size="11" lengthAdjust="spacingAndGlyphs" textLength="77" x="379.5" y="251.1157">接口定义的方法</text><line style="stroke: #A80036; stroke-width: 1.0; stroke-dasharray: 1.0,2.0;" x1="456.5" x2="495" y1="247.6223" y2="247.6223"/><rect fill="#FEFECE" filter="url(#f92wie9qnbdoq)" height="48" id="Exception" style="stroke: #A80036; stroke-width: 1.5;" width="85" x="30.5" y="55.5"/><ellipse cx="45.5" cy="71.5" fill="#ADD1B2" rx="11" ry="11" style="stroke: #A80036; stroke-width: 1.0;"/><path d="M45.5313,66.4063 Q46.5938,66.4063 47.125,66.8125 Q47.1875,66.8594 47.2656,66.9219 Q47.4219,67.0469 47.4531,67 Q47.4688,66.9688 47.4688,66.9219 Q47.5156,66.5469 47.6719,66.2188 L48.7188,66.5 Q48.3906,67.375 48.3906,67.6406 Q48.3906,68.0156 48.7188,68.8125 L47.4844,69.0938 Q47.125,68.4063 46.3125,68.0313 Q45.9219,67.8594 45.5313,67.8594 Q44.4531,67.8594 43.7031,68.8906 Q43.0469,69.8281 43.0469,71.2188 Q43.0469,72.7813 43.9688,73.8438 Q44.6406,74.625 45.5313,74.625 Q46.4063,74.625 47.2188,73.7031 Q47.2813,73.6563 47.3281,73.5938 L48.4375,74.6563 Q47.6719,75.6094 46.3125,75.9375 Q45.9063,76.0313 45.5313,76.0313 Q43.75,76.0313 42.5625,74.5156 Q41.4844,73.125 41.4844,71.2188 Q41.4844,69.1094 42.7656,67.6875 Q43.9219,66.4063 45.5313,66.4063 Z "/><text fill="#000000" font-family="sans-serif" font-size="12" lengthAdjust="spacingAndGlyphs" textLength="53" x="59.5" y="75.8564">Exception</text><line style="stroke: #A80036; stroke-width: 1.5;" x1="31.5" x2="114.5" y1="87.5" y2="87.5"/><line style="stroke: #A80036; stroke-width: 1.5;" x1="31.5" x2="114.5" y1="95.5" y2="95.5"/><path d="M83.0552,123.3773 C88.7737,148.3309 95.7177,178.6316 100.4585,199.319 " fill="none" id="Exception&lt;-ParamNullException" style="stroke: #A80036; stroke-width: 1.0;"/><polygon fill="none" points="76.1679,124.6607,78.5235,103.6024,89.8142,121.5334,76.1679,124.6607" style="stroke: #A80036; stroke-width: 1.0;"/><path d="M324.5403,116.1544 C320.2052,126.5141 316.2079,137.9751 314,149 C302.6544,205.6529 305.1408,221.9055 314,279 C316.3843,294.3657 320.3962,310.4595 324.9419,325.6791 " fill="none" id="UserService-&gt;User" style="stroke: #A80036; stroke-width: 1.0;"/><polygon fill="#A80036" points="326.5024,330.8047,327.7077,321.0299,325.0461,326.0215,320.0545,323.3599,326.5024,330.8047" style="stroke: #A80036; stroke-width: 1.0;"/><path d="M282.8885,116.0234 C241.5098,141.1649 187.4681,174.0004 150.0595,196.7297 " fill="none" id="UserService-&gt;ParamNullException" style="stroke: #A80036; stroke-width: 1.0;"/><polygon fill="#A80036" points="145.5819,199.4502,155.3505,198.1954,149.855,196.8539,151.1965,191.3584,145.5819,199.4502" style="stroke: #A80036; stroke-width: 1.0;"/><path d="M371.4908,134.2024 C378.6527,147.9532 386.2806,162.5988 393.2433,175.9671 " fill="none" id="UserService&lt;-UserServiceImpl" style="stroke: #A80036; stroke-width: 1.0;"/><polygon fill="none" points="365.1501,137.1817,362.1197,116.2099,377.5669,130.7146,365.1501,137.1817" style="stroke: #A80036; stroke-width: 1.0;"/><path d="M399.9652,271.3195 C393.6507,288.0625 386.4087,307.2648 379.498,325.5887 " fill="none" id="UserServiceImpl-&gt;User" style="stroke: #A80036; stroke-width: 1.0;"/><polygon fill="#A80036" points="377.5586,330.7309,384.4773,323.7215,379.323,326.0526,376.9919,320.8984,377.5586,330.7309" style="stroke: #A80036; stroke-width: 1.0;"/></g></svg>